<svg width="555" height="555" viewBox="0 0 555 555" fill="none" xmlns="http://www.w3.org/2000/svg">
<path d="M256.577 64.395C263.163 44.1262 291.837 44.1263 298.423 64.3951L334.863 176.546C337.809 185.611 346.256 191.748 355.787 191.748L473.709 191.748C495.021 191.748 503.882 219.019 486.64 231.546L391.239 300.859C383.528 306.461 380.302 316.392 383.247 325.456L419.687 437.607C426.273 457.876 403.074 474.731 385.833 462.204L290.431 392.891C282.721 387.289 272.279 387.289 264.569 392.891L169.167 462.204C151.926 474.731 128.727 457.876 135.313 437.607L171.753 325.456C174.698 316.392 171.472 306.461 163.761 300.859L68.3595 231.546C51.1178 219.019 59.9789 191.748 81.2908 191.748L199.213 191.748C208.744 191.748 217.191 185.611 220.137 176.546L256.577 64.395Z" fill="#D9D9D9"/>
</svg>
